<mxfile host="app.diagrams.net" modified="2021-02-02T01:53:46.760Z" agent="5.0 (Windows NT 10.0; Win64; x64) AppleWebKit/537.36 (KHTML, like Gecko) Chrome/88.0.4324.104 Safari/537.36" etag="4V3LfXROpR3pCglLpMid" version="14.2.9" type="github">
  <diagram id="C5RBs43oDa-KdzZeNtuy" name="Page-1">
    <mxGraphModel dx="1242" dy="694" grid="1" gridSize="10" guides="1" tooltips="1" connect="1" arrows="1" fold="1" page="1" pageScale="1" pageWidth="827" pageHeight="1169" math="0" shadow="0">
      <root>
        <mxCell id="WIyWlLk6GJQsqaUBKTNV-0" />
        <mxCell id="WIyWlLk6GJQsqaUBKTNV-1" parent="WIyWlLk6GJQsqaUBKTNV-0" />
        <mxCell id="WIyWlLk6GJQsqaUBKTNV-3" value="作为系统用户，想要在&lt;b&gt;子项目&lt;/b&gt;列表中可以查看到所有其有权限&lt;b&gt;查看的大项目下的所有子项目&lt;/b&gt;，这样就可以对子项目进行管理" style="rounded=1;whiteSpace=wrap;html=1;fontSize=12;glass=0;strokeWidth=1;shadow=0;" parent="WIyWlLk6GJQsqaUBKTNV-1" vertex="1">
          <mxGeometry x="120" y="120" width="640" height="40" as="geometry" />
        </mxCell>
        <mxCell id="jYyvjritApVDWqoQF4cN-0" value="作为项目经理，想要通过变更列表功能来管理&lt;b&gt;项目变更（设变）&lt;/b&gt;，这样就可以项目变更管理" style="rounded=1;whiteSpace=wrap;html=1;fontSize=12;glass=0;strokeWidth=1;shadow=0;" parent="WIyWlLk6GJQsqaUBKTNV-1" vertex="1">
          <mxGeometry x="118" y="540" width="640" height="40" as="geometry" />
        </mxCell>
        <mxCell id="jYyvjritApVDWqoQF4cN-11" value="作为项目经理，想要通过&lt;b&gt;子项目基本信息管理&lt;/b&gt;对项目信息进行维护，这样就可以实现子项目信息统一维护" style="rounded=1;whiteSpace=wrap;html=1;fontSize=12;glass=0;strokeWidth=1;shadow=0;" parent="WIyWlLk6GJQsqaUBKTNV-1" vertex="1">
          <mxGeometry x="118" y="360" width="640" height="40" as="geometry" />
        </mxCell>
        <mxCell id="jYyvjritApVDWqoQF4cN-12" value="作为项目经理，想要通过维护项目组织功能对大项目中的&lt;b&gt;项目成员进行增删&lt;/b&gt;，这样就可以实现项目组织管理" style="rounded=1;whiteSpace=wrap;html=1;fontSize=12;glass=0;strokeWidth=1;shadow=0;" parent="WIyWlLk6GJQsqaUBKTNV-1" vertex="1">
          <mxGeometry x="118" y="480" width="640" height="40" as="geometry" />
        </mxCell>
        <mxCell id="jYyvjritApVDWqoQF4cN-13" value="作为项目经理，想要通过&lt;b&gt;MIL来管理项目问题集&lt;/b&gt;，这样就可以项目MIL管理" style="rounded=1;whiteSpace=wrap;html=1;fontSize=12;glass=0;strokeWidth=1;shadow=0;" parent="WIyWlLk6GJQsqaUBKTNV-1" vertex="1">
          <mxGeometry x="118" y="660" width="640" height="40" as="geometry" />
        </mxCell>
        <mxCell id="jYyvjritApVDWqoQF4cN-14" value="项目经理" style="rounded=1;whiteSpace=wrap;html=1;fontSize=12;glass=0;strokeWidth=1;shadow=0;" parent="WIyWlLk6GJQsqaUBKTNV-1" vertex="1">
          <mxGeometry x="340" y="200" width="200" height="40" as="geometry" />
        </mxCell>
        <mxCell id="jYyvjritApVDWqoQF4cN-15" value="作为项目经理，想要通过&lt;b&gt;成员分配功能&lt;/b&gt;项目组成员进行不同项目职能分工的分配，这样就可以实现项目组内的成员职能分工" style="rounded=1;whiteSpace=wrap;html=1;fontSize=12;glass=0;strokeWidth=1;shadow=0;" parent="WIyWlLk6GJQsqaUBKTNV-1" vertex="1">
          <mxGeometry x="118" y="600" width="640" height="40" as="geometry" />
        </mxCell>
        <mxCell id="jYyvjritApVDWqoQF4cN-18" value="作为有大项目管理菜单权限的系统用户，想要通过&lt;b&gt;大项目卡片页面查看到自己有权限查看的大项目&lt;/b&gt;，这样就可以实现后续的大项目管理功能" style="rounded=1;whiteSpace=wrap;html=1;fontSize=12;glass=0;strokeWidth=1;shadow=0;" parent="WIyWlLk6GJQsqaUBKTNV-1" vertex="1">
          <mxGeometry x="120" y="40" width="640" height="40" as="geometry" />
        </mxCell>
        <mxCell id="jYyvjritApVDWqoQF4cN-19" value="作为项目经理，想要通过大项目基本信息管理对&lt;b&gt;项目信息、状态&lt;/b&gt;等进行维护，这样就可以实现大项目信息统一维护" style="rounded=1;whiteSpace=wrap;html=1;fontSize=12;glass=0;strokeWidth=1;shadow=0;" parent="WIyWlLk6GJQsqaUBKTNV-1" vertex="1">
          <mxGeometry x="118" y="420" width="640" height="40" as="geometry" />
        </mxCell>
        <mxCell id="jYyvjritApVDWqoQF4cN-21" value="高层管理者(一级、二级审核人)" style="rounded=1;whiteSpace=wrap;html=1;fontSize=12;glass=0;strokeWidth=1;shadow=0;" parent="WIyWlLk6GJQsqaUBKTNV-1" vertex="1">
          <mxGeometry x="120" y="200" width="200" height="40" as="geometry" />
        </mxCell>
        <mxCell id="jYyvjritApVDWqoQF4cN-22" value="其他项目成员" style="rounded=1;whiteSpace=wrap;html=1;fontSize=12;glass=0;strokeWidth=1;shadow=0;" parent="WIyWlLk6GJQsqaUBKTNV-1" vertex="1">
          <mxGeometry x="560" y="200" width="200" height="40" as="geometry" />
        </mxCell>
        <mxCell id="jYyvjritApVDWqoQF4cN-24" value="项目经理" style="shape=umlActor;verticalLabelPosition=bottom;verticalAlign=top;html=1;outlineConnect=0;fillColor=#f8cecc;strokeColor=#b85450;" parent="WIyWlLk6GJQsqaUBKTNV-1" vertex="1">
          <mxGeometry x="38" y="490" width="30" height="60" as="geometry" />
        </mxCell>
        <mxCell id="jYyvjritApVDWqoQF4cN-40" value="系统用户" style="shape=umlActor;verticalLabelPosition=bottom;verticalAlign=top;html=1;outlineConnect=0;fillColor=#ffe6cc;strokeColor=#d79b00;" parent="WIyWlLk6GJQsqaUBKTNV-1" vertex="1">
          <mxGeometry x="40" y="70" width="30" height="60" as="geometry" />
        </mxCell>
        <mxCell id="kZA9z5EJ2N3rRpN_CX4f-4" value="" style="shape=flexArrow;endArrow=classic;html=1;" edge="1" parent="WIyWlLk6GJQsqaUBKTNV-1">
          <mxGeometry width="50" height="50" relative="1" as="geometry">
            <mxPoint x="788" y="360" as="sourcePoint" />
            <mxPoint x="788" y="700" as="targetPoint" />
          </mxGeometry>
        </mxCell>
        <mxCell id="kZA9z5EJ2N3rRpN_CX4f-13" value="" style="edgeStyle=orthogonalEdgeStyle;rounded=0;orthogonalLoop=1;jettySize=auto;html=1;" edge="1" parent="WIyWlLk6GJQsqaUBKTNV-1" source="kZA9z5EJ2N3rRpN_CX4f-5" target="kZA9z5EJ2N3rRpN_CX4f-8">
          <mxGeometry relative="1" as="geometry" />
        </mxCell>
        <mxCell id="kZA9z5EJ2N3rRpN_CX4f-5" value="大项目信息维护" style="rounded=0;whiteSpace=wrap;html=1;" vertex="1" parent="WIyWlLk6GJQsqaUBKTNV-1">
          <mxGeometry x="320" y="270" width="100" height="60" as="geometry" />
        </mxCell>
        <mxCell id="kZA9z5EJ2N3rRpN_CX4f-12" value="" style="edgeStyle=orthogonalEdgeStyle;rounded=0;orthogonalLoop=1;jettySize=auto;html=1;" edge="1" parent="WIyWlLk6GJQsqaUBKTNV-1" source="kZA9z5EJ2N3rRpN_CX4f-7" target="kZA9z5EJ2N3rRpN_CX4f-5">
          <mxGeometry relative="1" as="geometry" />
        </mxCell>
        <mxCell id="kZA9z5EJ2N3rRpN_CX4f-7" value="项目经理=》大项目卡片" style="rounded=0;whiteSpace=wrap;html=1;" vertex="1" parent="WIyWlLk6GJQsqaUBKTNV-1">
          <mxGeometry x="120" y="270" width="130" height="60" as="geometry" />
        </mxCell>
        <mxCell id="kZA9z5EJ2N3rRpN_CX4f-14" value="" style="edgeStyle=orthogonalEdgeStyle;rounded=0;orthogonalLoop=1;jettySize=auto;html=1;" edge="1" parent="WIyWlLk6GJQsqaUBKTNV-1" source="kZA9z5EJ2N3rRpN_CX4f-8" target="kZA9z5EJ2N3rRpN_CX4f-9">
          <mxGeometry relative="1" as="geometry" />
        </mxCell>
        <mxCell id="kZA9z5EJ2N3rRpN_CX4f-8" value="项目组织维护" style="rounded=0;whiteSpace=wrap;html=1;" vertex="1" parent="WIyWlLk6GJQsqaUBKTNV-1">
          <mxGeometry x="500" y="270" width="100" height="60" as="geometry" />
        </mxCell>
        <mxCell id="kZA9z5EJ2N3rRpN_CX4f-9" value="项目成员分配" style="rounded=0;whiteSpace=wrap;html=1;" vertex="1" parent="WIyWlLk6GJQsqaUBKTNV-1">
          <mxGeometry x="660" y="270" width="100" height="60" as="geometry" />
        </mxCell>
        <mxCell id="kZA9z5EJ2N3rRpN_CX4f-10" value="系统用户" style="shape=umlActor;verticalLabelPosition=bottom;verticalAlign=top;html=1;outlineConnect=0;fillColor=#ffe6cc;strokeColor=#d79b00;" vertex="1" parent="WIyWlLk6GJQsqaUBKTNV-1">
          <mxGeometry x="10" y="270" width="30" height="60" as="geometry" />
        </mxCell>
        <mxCell id="kZA9z5EJ2N3rRpN_CX4f-11" value="项目经理" style="shape=umlActor;verticalLabelPosition=bottom;verticalAlign=top;html=1;outlineConnect=0;fillColor=#f8cecc;strokeColor=#b85450;" vertex="1" parent="WIyWlLk6GJQsqaUBKTNV-1">
          <mxGeometry x="60" y="270" width="30" height="60" as="geometry" />
        </mxCell>
      </root>
    </mxGraphModel>
  </diagram>
</mxfile>
